<?xml version="1.0" encoding="utf-8"?>
<!-- Generator: Adobe Illustrator 19.0.0, SVG Export Plug-In . SVG Version: 6.00 Build 0)  -->
<svg version="1.1" id="Layer_1" xmlns="http://www.w3.org/2000/svg" xmlns:xlink="http://www.w3.org/1999/xlink" x="0px" y="0px"
	 viewBox="-429 435.2 384.8 131.8" style="enable-background:new -429 435.2 384.8 131.8;" xml:space="preserve">
<style type="text/css">
	.st0{fill:#1ABC9C;}
	.st1{fill:#161616;}
	.st2{font-family:'Helvetica-Bold';}
	.st3{font-size:102.2169px;}
	.st4{letter-spacing:-3.2;}
	.st5{fill:#F2F2F2;}
</style>
<path id="XMLID_3_" class="st0" d="M-402,471.9h11v-12h16v12h11v-12h16v73.7l-35.1,29.7l-34.9-30v-73.4h16V471.9z M-383.4,520.7
	c-6.4,0-11.6,5.2-11.6,11.6c0,6.4,5.2,11.6,11.6,11.6s11.6-5.3,11.6-11.6C-371.8,525.9-377,520.7-383.4,520.7z"/>
<text id="XMLID_4_" transform="matrix(0.9259 0 0 1 -330.631 538.4536)" class="st1 st2 st3 st4">SEBKI</text>
<g id="XMLID_6_">
	<path id="XMLID_8_" class="st5" d="M-401.3,485.2h4.7v14.6c0,1.6,0.2,2.8,0.5,3.6c0.6,1.3,1.8,2,3.6,2c1.8,0,3-0.7,3.6-2
		c0.4-0.7,0.5-1.9,0.5-3.6v-14.6h4.7v14.6c0,2.5-0.4,4.5-1.1,5.9c-1.3,2.6-3.9,3.9-7.7,3.9c-3.8,0-6.4-1.3-7.7-3.9
		c-0.7-1.4-1.1-3.4-1.1-5.9V485.2z"/>
	<path id="XMLID_10_" class="st5" d="M-379.2,485.2h4.5v9.8l8.5-9.8h5.9l-9,9.7l9.5,13.9h-6l-6.8-10.3l-2.2,2.4v7.9h-4.5v-23.6
		H-379.2z"/>
</g>
</svg>
